<?xml version="1.0" encoding="UTF-8" standalone="no"?>
<svg width="500px" height="478px" viewBox="0 0 500 478" version="1.1" xmlns="http://www.w3.org/2000/svg" xmlns:xlink="http://www.w3.org/1999/xlink" xmlns:sketch="http://www.bohemiancoding.com/sketch/ns">
    <!-- Generator: Sketch 3.3.3 (12072) - http://www.bohemiancoding.com/sketch -->
    <title>comparability</title>
    <desc>Created with Sketch.</desc>
    <defs></defs>
    <g id="Page-1" stroke="none" stroke-width="1" fill="none" fill-rule="evenodd" sketch:type="MSPage">
        <g id="comparability" sketch:type="MSLayerGroup" fill="#3E5D9C">
            <path d="M478.8,200.7 L423.5,196 C414.4,195.2 407.7,187.3 408.4,178.2 C409.1,169.1 417.2,162.4 426.2,163.2 L439.8,164.3 L327.6,40.9 L183.3,182.3 C177,188.4 167.1,188.6 160.7,182.7 L5.7,40.9 C-1,34.8 -1.5,24.3 4.6,17.6 C10.7,10.9 21.2,10.4 27.9,16.6 L171.4,147.8 L316.8,5.4 C320,2.3 324.4,0.6 328.8,0.7 C333.3,0.8 337.5,2.8 340.5,6.1 L464.1,142.2 L464.3,128.6 C464.4,119.5 472.1,111.4 481,112.3 C490,112.4 497.4,119.8 497.3,129 L496.7,184.5 C496.6,189.1 494.7,193.4 491.3,196.5 C488.3,199.2 484.3,200.8 480.2,200.8 C479.7,200.8 479.2,200.8 478.8,200.7 L478.8,200.7 Z M16.5,91 C7.4,91 0,98.4 0,107.5 L0,460.8 C0,469.9 7.4,477.3 16.5,477.3 C25.6,477.3 33,469.9 33,460.8 L33,107.5 C32.9,98.4 25.5,91 16.5,91 L16.5,91 Z M94.3,162 C85.2,162 77.8,169.4 77.8,178.5 L77.8,460.9 C77.8,470 85.2,477.4 94.3,477.4 C103.3,477.4 110.7,470 110.7,460.9 L110.7,178.4 C110.8,169.3 103.4,162 94.3,162 L94.3,162 Z M172.2,220 C163.1,220 155.7,227.4 155.7,236.5 L155.7,460.9 C155.7,470 163.1,477.4 172.2,477.4 C181.3,477.4 188.7,470 188.7,460.9 L188.7,236.5 C188.6,227.4 181.3,220 172.2,220 L172.2,220 Z M250,161.8 C240.9,161.8 233.5,169.2 233.5,178.3 L233.5,460.8 C233.5,469.9 240.9,477.3 250,477.3 C259.1,477.3 266.5,469.9 266.5,460.8 L266.5,178.3 C266.5,169.2 259.1,161.8 250,161.8 L250,161.8 Z M327.8,80.2 C318.7,80.2 311.3,87.6 311.3,96.7 L311.3,460.9 C311.3,470 318.6,477.4 327.8,477.4 C336.9,477.4 344.3,470 344.3,460.9 L344.3,96.7 C344.3,87.6 337,80.2 327.8,80.2 L327.8,80.2 Z M405.7,221.9 C396.6,221.9 389.2,229.2 389.2,238.4 L389.2,460.9 C389.2,470 396.5,477.4 405.7,477.4 C414.8,477.4 422.2,470 422.2,460.9 L422.2,238.4 C422.2,229.2 414.8,221.9 405.7,221.9 L405.7,221.9 Z M483.5,226.6 C474.4,226.6 467,234 467,243.1 L467,460.9 C467,470 474.4,477.4 483.5,477.4 C492.6,477.4 500,470 500,460.9 L500,243 C500,234 492.6,226.6 483.5,226.6 L483.5,226.6 Z" id="Shape" sketch:type="MSShapeGroup"></path>
        </g>
    </g>
</svg>