<?xml version="1.0" encoding="UTF-8" standalone="no"?>
<svg width="500px" height="500px" viewBox="0 0 500 500" version="1.1" xmlns="http://www.w3.org/2000/svg" xmlns:xlink="http://www.w3.org/1999/xlink" xmlns:sketch="http://www.bohemiancoding.com/sketch/ns">
    <!-- Generator: Sketch 3.3.3 (12072) - http://www.bohemiancoding.com/sketch -->
    <title>doctor</title>
    <desc>Created with Sketch.</desc>
    <defs></defs>
    <g id="Page-1" stroke="none" stroke-width="1" fill="none" fill-rule="evenodd" sketch:type="MSPage">
        <g id="doctor" sketch:type="MSLayerGroup" transform="translate(-1.000000, 0.000000)">
            <g id="Page-1" sketch:type="MSShapeGroup">
                <g id="Symbolicons-Color">
                    <g id="stethoscope">
                        <path d="M411.8,267.8 L411.8,357 C407.2,416.8 357,464 295.8,464 C234.7,464 184.6,416.7 180,357 L179.9,321.3 L144.2,321.3 L144.2,357 C148.9,436.6 214.9,499.7 295.8,499.7 C376.7,499.7 442.8,436.6 447.4,357 L447.4,267.8 L411.8,267.8" id="Fill-377" fill="#3E5D9C"></path>
                        <path d="M126.4,303.5 L197.8,303.5 L197.8,339.2 L126.4,339.2 L126.4,303.5 L126.4,303.5 Z" id="Fill-378" fill="#3E5D9C"></path>
                        <path d="M311.5,32.5 C302.4,22 288.8,16 274.3,16 L251.2,18.2 L251.2,53.9 L274.3,51.7 C278.5,51.7 282.2,53.2 284.5,55.9 C286.9,58.6 287.8,62.4 287.2,66.6 L256.4,247.9 C254.9,258.6 244.1,267.9 233.3,267.9 L90.7,267.9 C79.9,267.9 69.2,258.6 67.6,247.9 L36.8,66.6 C36.2,62.4 37.2,58.6 39.5,55.9 C41.9,53.2 45.5,51.7 49.7,51.7 L72.8,53.9 L72.8,18.1 L49.7,15.9 C35.2,15.9 21.6,21.9 12.5,32.4 C3.5,43 -0.5,57.2 1.5,71.6 L32.3,252.9 C36.3,281.3 62,303.5 90.7,303.5 L233.4,303.5 C262.1,303.5 287.7,281.3 291.8,252.9 L322.6,71.6 C324.7,57.2 320.6,43 311.5,32.5" id="Fill-379" fill="#3E5D9C"></path>
                        <path d="M108.6,53.8 C108.6,63.6 100.6,71.6 90.8,71.6 C81,71.6 73,63.6 73,53.8 L73,18.1 C73,8.3 81,0.3 90.8,0.3 C100.6,0.3 108.6,8.3 108.6,18.1 L108.6,53.8" id="Fill-380" fill="#3E5D9C"></path>
                        <path d="M251.3,53.8 C251.3,63.6 243.3,71.6 233.5,71.6 C223.7,71.6 215.7,63.6 215.7,53.8 L215.7,18.1 C215.7,8.3 223.7,0.3 233.5,0.3 C243.3,0.3 251.3,8.3 251.3,18.1 L251.3,53.8" id="Fill-381" fill="#3E5D9C"></path>
                        <path d="M501,214.3 C501,253.7 469.1,285.7 429.6,285.7 C390.1,285.7 358.2,253.8 358.2,214.3 C358.2,174.8 390.1,142.9 429.6,142.9 C469.1,142.9 501,174.9 501,214.3" id="Fill-382" fill="#3E5D9C"></path>
                        <path d="M465.3,214.3 C465.3,234 449.3,250 429.6,250 C409.9,250 393.9,234 393.9,214.3 C393.9,194.6 409.9,178.6 429.6,178.6 C449.4,178.6 465.3,194.6 465.3,214.3" id="Fill-383" fill="#FFFFFF"></path>
                    </g>
                </g>
            </g>
        </g>
    </g>
</svg>