<?xml version="1.0" encoding="UTF-8" standalone="no"?>
<svg width="512px" height="374px" viewBox="0 0 512 374" version="1.1" xmlns="http://www.w3.org/2000/svg" xmlns:xlink="http://www.w3.org/1999/xlink" xmlns:sketch="http://www.bohemiancoding.com/sketch/ns">
    <!-- Generator: Sketch 3.3.3 (12072) - http://www.bohemiancoding.com/sketch -->
    <title>football</title>
    <desc>Created with Sketch.</desc>
    <defs></defs>
    <g id="Page-1" stroke="none" stroke-width="1" fill="none" fill-rule="evenodd" sketch:type="MSPage">
        <g id="football" sketch:type="MSLayerGroup" transform="translate(6.000000, 6.000000)" fill="#3E5D9C">
            <g id="Page-1" sketch:type="MSShapeGroup">
                <g id="football" transform="translate(250.000000, 181.000000) rotate(-90.000000) translate(-250.000000, -181.000000) translate(69.000000, -69.000000)">
                    <g id="Group" stroke="#3E5D9C" stroke-width="12">
                        <path d="M361.7,489.6 L0.3,489.6 L0.3,10.4 L361.6,10.4 L361.6,489.6 L361.7,489.6 L361.7,489.6 Z M5.6,484.3 L356.2,484.3 L356.2,15.7 L5.6,15.7 L5.6,484.3 L5.6,484.3 Z" id="Shape"></path>
                        <rect id="Rectangle-path" x="3" y="247.3" width="355.9" height="5.3"></rect>
                        <path d="M180.1,288.8 C158.6,288.8 141.3,271.3 141.3,250 C141.3,228.5 158.8,211.2 180.1,211.2 C201.6,211.2 218.9,228.7 218.9,250 C218.8,271.5 201.5,288.8 180.1,288.8 L180.1,288.8 L180.1,288.8 Z M180.1,216.6 C161.6,216.6 146.7,231.7 146.7,250 C146.7,268.4 161.8,283.4 180.1,283.4 C198.4,283.4 213.5,268.3 213.5,250 C213.5,231.6 198.6,216.6 180.1,216.6 L180.1,216.6 L180.1,216.6 Z" id="Shape"></path>
                        <path d="M153.9,421.5 L149.8,418.2 C157.3,409 168.2,403.7 180.1,403.7 C191.8,403.7 202.9,408.9 210.2,418.1 L206.1,421.4 C199.7,413.5 190.2,409 180.1,409 C169.9,409 160.3,413.5 153.9,421.5 L153.9,421.5 L153.9,421.5 Z" id="Shape"></path>
                        <path d="M263,486.9 L257.6,486.9 L257.6,422.8 L103.6,422.8 L103.6,486.9 L98.2,486.9 L98.2,417.5 L263,417.5 L263,486.9 L263,486.9 Z" id="Shape"></path>
                        <path d="M218.8,486.9 L213.5,486.9 L213.5,467.4 L146.6,467.4 L146.6,486.9 L141.3,486.9 L141.3,462 L218.8,462 L218.8,486.9 L218.8,486.9 Z" id="Shape"></path>
                        <path d="M197.4,500 L163.8,500 L163.8,486.9 L169.1,486.9 L169.1,494.7 L192.1,494.7 L192.1,486.9 L197.4,486.9 L197.4,500 L197.4,500 Z" id="Shape"></path>
                        <path d="M181.1,96.3 C169.4,96.3 158.3,91.1 151,81.9 L155.1,78.6 C161.5,86.5 171,91 181.1,91 C191.2,91 200.8,86.5 207.2,78.5 L211.3,81.8 C204.1,91.2 193,96.3 181.1,96.3 L181.1,96.3 L181.1,96.3 Z" id="Shape"></path>
                        <path d="M263,82.5 L98.2,82.5 L98.2,13.1 L103.6,13.1 L103.6,77.2 L257.6,77.2 L257.6,13.1 L263,13.1 L263,82.5 L263,82.5 Z" id="Shape"></path>
                        <path d="M220,38 L142.4,38 L142.4,13.1 L147.7,13.1 L147.7,32.6 L214.7,32.6 L214.7,13.1 L220,13.1 L220,38 L220,38 Z" id="Shape"></path>
                        <path d="M197.4,13.1 L192.1,13.1 L192.1,5.3 L169.1,5.3 L169.1,13.1 L163.8,13.1 L163.8,0 L197.4,0 L197.4,13.1 L197.4,13.1 Z" id="Shape"></path>
                        <circle id="Oval" cx="181.1" cy="57.3" r="4.7"></circle>
                        <circle id="Oval" cx="181.1" cy="250" r="4.7"></circle>
                        <circle id="Oval" cx="181.1" cy="443.1" r="4.7"></circle>
                    </g>
                    <path d="M176.1,260.3 L170.8,260.3 C170.8,249 180,239.8 191.3,239.8 L191.3,245.1 C182.9,245.1 176.1,251.9 176.1,260.3 L176.1,260.3 L176.1,260.3 Z" id="Shape"></path>
                    <path d="M191.3,260.3 C180,260.3 170.8,251.1 170.8,239.8 L176.1,239.8 C176.1,248.2 182.9,255 191.3,255 L191.3,260.3 L191.3,260.3 Z" id="Shape"></path>
                    <path d="M170.7,260.3 L170.7,255 C179.1,255 185.9,248.2 185.9,239.8 L191.2,239.8 C191.3,251.1 182.1,260.3 170.7,260.3 L170.7,260.3 L170.7,260.3 Z" id="Shape"></path>
                    <path d="M191.3,260.3 L186,260.3 C186,251.9 179.2,245.1 170.8,245.1 L170.8,239.8 C182.1,239.7 191.3,248.9 191.3,260.3 L191.3,260.3 L191.3,260.3 Z" id="Shape"></path>
                </g>
            </g>
        </g>
    </g>
</svg>