<?xml version="1.0" encoding="UTF-8" standalone="no"?>
<svg width="505px" height="217px" viewBox="0 0 505 217" version="1.1" xmlns="http://www.w3.org/2000/svg" xmlns:xlink="http://www.w3.org/1999/xlink" xmlns:sketch="http://www.bohemiancoding.com/sketch/ns">
    <!-- Generator: Sketch 3.3.3 (12072) - http://www.bohemiancoding.com/sketch -->
    <title>hairdresser</title>
    <desc>Created with Sketch.</desc>
    <defs></defs>
    <g id="Page-1" stroke="none" stroke-width="1" fill="none" fill-rule="evenodd" sketch:type="MSPage">
        <g id="hairdresser" sketch:type="MSLayerGroup" transform="translate(2.000000, 2.000000)" stroke-width="4" stroke="#3E5D9C" fill="#3E5D9C">
            <g id="Page-1" sketch:type="MSShapeGroup">
                <g id="hairdresser" transform="translate(251.000000, 106.500000) rotate(90.000000) translate(-251.000000, -106.500000) translate(145.000000, -144.000000)">
                    <path d="M173.3,18.4 C169.5,17.4 165.5,16.9 161.6,16.9 C137.3,16.9 116,34.6 109.7,59.8 C104.3,81.6 111.6,103.5 126.8,116.3 L126.8,116.5 C128.4,126.8 116,169.3 105.9,196.3 C102.2,189.9 99.6,183.9 98.1,178.3 L96.3,171.7 C90.5,150.3 85,130 85.4,116 C100.2,103.3 107.5,82 102.5,60.5 C96.6,35.2 74.7,16.8 50.5,16.8 C46.8,16.8 43.1,17.3 39.5,18.1 C38.6,18.3 37.7,18.6 36.9,18.8 L29.6,3.7 C28.4,1.2 25.4,0.2 22.9,1.4 C20.4,2.6 19.4,5.6 20.6,8.1 L27.6,22.6 C19.4,27 12.5,33.8 7.6,42.4 C0.6,54.8 -1.5,69.6 1.9,84 C7.8,109.4 29.7,127.7 53.9,127.7 L54.2,127.7 C59,137.7 74.9,175.9 79.9,250.3 C85.8,338.9 102.4,494.7 102.6,496.2 C102.9,498.8 105,500.7 107.6,500.7 L113.5,500.7 C116,500.7 118.1,498.8 118.5,496.3 C118.7,495.1 133.7,378.8 133.7,233.2 C133.7,232.8 133.6,232.4 133.5,232.1 C136.4,202.1 143,160.2 157.9,127.5 L158.2,127.5 C182.5,127.5 203.8,109.9 210.1,84.6 C217.4,55.2 201,25.3 173.3,18.4 L173.3,18.4 L173.3,18.4 Z M53.8,117.9 C34.2,117.9 16.5,102.8 11.6,82 C8.8,70 10.4,57.8 16.2,47.6 C22,37.4 31,30.5 41.7,28 C44.6,27.3 47.5,27 50.5,27 C70.1,27 87.8,42.1 92.7,63 C98.4,87.5 84.9,111.7 62.6,116.9 C59.7,117.5 56.7,117.9 53.8,117.9 L53.8,117.9 L53.8,117.9 Z M110.5,476.9 C105.9,432.8 94.5,320.1 89.8,249.9 C85.1,179.8 71,141 64.6,126.7 C64.7,126.7 64.8,126.6 64.8,126.6 C68.6,125.7 72.1,124.4 75.5,122.7 C76.4,137.3 81.3,155.5 86.5,174.5 L88.3,181 C90.7,190 95.5,199.8 102.6,210.2 C102.6,210.2 102.6,210.2 102.6,210.3 C110.9,222.4 119.9,232 123.4,235.6 C123.4,345.8 114.7,438.8 110.5,476.9 L110.5,476.9 L110.5,476.9 Z M124.5,221.9 C121,218 116.7,212.8 112.6,206.9 C120.5,187.2 134.7,144 136.7,122.9 C139.7,124.5 142.9,125.6 146.3,126.5 C146.7,126.6 147,126.7 147.3,126.7 C134.3,156.7 127.8,193.1 124.5,221.9 L124.5,221.9 L124.5,221.9 Z M200.2,82.5 C195,103.3 177.7,117.8 158,117.8 C154.9,117.8 151.8,117.4 148.7,116.7 C126.5,111.1 113.3,86.7 119.4,62.3 C124.6,41.5 142,27 161.6,27 C164.7,27 167.8,27.4 170.9,28.2 C193.2,33.7 206.3,58.1 200.2,82.5 L200.2,82.5 L200.2,82.5 Z" id="Shape"></path>
                    <circle id="Oval" cx="106" cy="251" r="9"></circle>
                </g>
            </g>
        </g>
    </g>
</svg>