<?xml version="1.0" encoding="UTF-8" standalone="no"?>
<svg width="500px" height="500px" viewBox="0 0 500 500" version="1.1" xmlns="http://www.w3.org/2000/svg" xmlns:xlink="http://www.w3.org/1999/xlink" xmlns:sketch="http://www.bohemiancoding.com/sketch/ns">
    <!-- Generator: Sketch 3.3.3 (12072) - http://www.bohemiancoding.com/sketch -->
    <title>judge</title>
    <desc>Created with Sketch.</desc>
    <defs></defs>
    <g id="Page-1" stroke="none" stroke-width="1" fill="none" fill-rule="evenodd" sketch:type="MSPage">
        <g id="judge" sketch:type="MSLayerGroup" fill="#3E5D9C">
            <g id="_x39_96-gavel-toolbar_x40_2x.png" sketch:type="MSShapeGroup">
                <path d="M493.7,205.8 L493.8,205.7 L450,183.8 L316.2,50.1 L294.2,6.3 L294.1,6.4 C292.2,2.7 288.5,0.1 284,0.1 C280.9,0.1 278,1.4 276,3.4 L117,162.4 C114.9,164.5 113.7,167.3 113.7,170.4 C113.7,174.9 116.3,178.6 120,180.5 L119.9,180.6 L163.7,202.5 L198.7,237.5 L16.2,420 C6.4,428.4 0,440.7 0,454.5 C0,479.6 20.4,500 45.5,500 C59.4,500 71.7,493.6 80,483.8 L262.5,301.3 L297.5,336.3 L319.4,380.1 L319.5,380.1 C321.4,383.8 325.1,386.4 329.6,386.4 C332.7,386.4 335.6,385.1 337.6,383.1 L496.7,224 C498.8,221.9 500,219.1 500,216 C500,211.5 497.4,207.7 493.7,205.8 L493.7,205.8 Z M144.2,167.4 L281,30.5 L293,54.5 L168.2,179.3 L144.2,167.4 L144.2,167.4 Z M63.9,467.8 C59.8,473.6 53.1,477.3 45.5,477.3 C33,477.3 22.8,467.1 22.8,454.6 C22.8,447 26.6,440.3 32.3,436.2 L214.8,253.7 L246.4,285.3 L63.9,467.8 L63.9,467.8 Z M306.8,313.5 L186.5,193.2 L306.8,72.9 L427.1,193.2 L306.8,313.5 L306.8,313.5 Z M332.7,355.8 L320.7,331.8 L445.4,207 L469.4,219 L332.7,355.8 L332.7,355.8 Z" id="Shape"></path>
            </g>
        </g>
    </g>
</svg>