<?xml version="1.0" encoding="UTF-8" standalone="no"?>
<svg width="418px" height="508px" viewBox="0 0 418 508" version="1.1" xmlns="http://www.w3.org/2000/svg" xmlns:xlink="http://www.w3.org/1999/xlink" xmlns:sketch="http://www.bohemiancoding.com/sketch/ns">
    <!-- Generator: Sketch 3.3.3 (12072) - http://www.bohemiancoding.com/sketch -->
    <title>manager</title>
    <desc>Created with Sketch.</desc>
    <defs></defs>
    <g id="Page-1" stroke="none" stroke-width="1" fill="none" fill-rule="evenodd" sketch:type="MSPage">
        <g id="manager" sketch:type="MSLayerGroup" transform="translate(3.000000, 4.000000)" stroke-width="7" stroke="#3E5D9C" fill="#3E5D9C">
            <g id="Page-1" sketch:type="MSShapeGroup">
                <g id="manager">
                    <g id="_x37_80-building_x40_2x.png">
                        <path d="M357.8,142.9 L268.5,142.9 L268.5,214.3 L357.8,214.3 L357.8,142.9 L357.8,142.9 Z M339.9,196.4 L286.3,196.4 L286.3,160.7 L339.9,160.7 L339.9,196.4 L339.9,196.4 Z M143.5,321.4 L54.2,321.4 L54.2,392.8 L143.5,392.8 L143.5,321.4 L143.5,321.4 Z M125.6,375 L72,375 L72,339.3 L125.6,339.3 L125.6,375 L125.6,375 Z M250.6,232.1 L161.3,232.1 L161.3,303.5 L250.6,303.5 L250.6,232.1 L250.6,232.1 Z M232.8,285.7 L179.2,285.7 L179.2,250 L232.8,250 L232.8,285.7 L232.8,285.7 Z M393.5,0 L18.5,0 C8.6,0 0.6,8 0.6,17.9 L0.6,482.2 C0.6,492.1 8.6,500.1 18.5,500.1 L393.5,500.1 C403.4,500.1 411.4,492.1 411.4,482.2 L411.4,17.9 C411.4,8 403.4,0 393.5,0 L393.5,0 L393.5,0 Z M232.8,482.1 L179.2,482.1 L179.2,339.3 L232.8,339.3 L232.8,482.1 L232.8,482.1 Z M393.5,482.1 L250.6,482.1 L250.6,321.4 L161.3,321.4 L161.3,482.1 L18.5,482.1 L18.5,17.9 L393.5,17.9 L393.5,482.1 L393.5,482.1 Z M357.8,53.6 L268.5,53.6 L268.5,125 L357.8,125 L357.8,53.6 L357.8,53.6 Z M339.9,107.1 L286.3,107.1 L286.3,71.4 L339.9,71.4 L339.9,107.1 L339.9,107.1 Z M357.8,232.1 L268.5,232.1 L268.5,303.5 L357.8,303.5 L357.8,232.1 L357.8,232.1 Z M339.9,285.7 L286.3,285.7 L286.3,250 L339.9,250 L339.9,285.7 L339.9,285.7 Z M143.5,53.6 L54.2,53.6 L54.2,125 L143.5,125 L143.5,53.6 L143.5,53.6 Z M125.6,107.1 L72,107.1 L72,71.4 L125.6,71.4 L125.6,107.1 L125.6,107.1 Z M250.6,53.6 L161.3,53.6 L161.3,125 L250.6,125 L250.6,53.6 L250.6,53.6 Z M232.8,107.1 L179.2,107.1 L179.2,71.4 L232.8,71.4 L232.8,107.1 L232.8,107.1 Z M143.5,142.9 L54.2,142.9 L54.2,214.3 L143.5,214.3 L143.5,142.9 L143.5,142.9 Z M125.6,196.4 L72,196.4 L72,160.7 L125.6,160.7 L125.6,196.4 L125.6,196.4 Z M143.5,232.1 L54.2,232.1 L54.2,303.5 L143.5,303.5 L143.5,232.1 L143.5,232.1 Z M125.6,285.7 L72,285.7 L72,250 L125.6,250 L125.6,285.7 L125.6,285.7 Z M357.8,321.4 L268.5,321.4 L268.5,392.8 L357.8,392.8 L357.8,321.4 L357.8,321.4 Z M339.9,375 L286.3,375 L286.3,339.3 L339.9,339.3 L339.9,375 L339.9,375 Z M250.6,142.9 L161.3,142.9 L161.3,214.3 L250.6,214.3 L250.6,142.9 L250.6,142.9 Z M232.8,196.4 L179.2,196.4 L179.2,160.7 L232.8,160.7 L232.8,196.4 L232.8,196.4 Z" id="Shape"></path>
                    </g>
                </g>
            </g>
        </g>
    </g>
</svg>