<?xml version="1.0" encoding="UTF-8" standalone="no"?>
<svg width="499px" height="378px" viewBox="0 0 499 378" version="1.1" xmlns="http://www.w3.org/2000/svg" xmlns:xlink="http://www.w3.org/1999/xlink" xmlns:sketch="http://www.bohemiancoding.com/sketch/ns">
    <!-- Generator: Sketch 3.3.3 (12072) - http://www.bohemiancoding.com/sketch -->
    <title>money</title>
    <desc>Created with Sketch.</desc>
    <defs></defs>
    <g id="Page-1" stroke="none" stroke-width="1" fill="none" fill-rule="evenodd" sketch:type="MSPage">
        <g id="money" sketch:type="MSLayerGroup">
            <g id="Group" sketch:type="MSShapeGroup">
                <path d="M209.3,290.2 C208.7,290.2 208.2,290.5 207.6,290.8 C207,291.1 206.7,291.1 206.5,291.4 C201.1,293.7 194.9,294.8 188.9,294.8 C185.5,294.8 182.1,294.5 179,293.7 C177.9,293.4 177,293.1 175.9,292.8 C175.3,292.5 175,292.5 174.5,292.2 C173.1,291.6 171.7,291.1 170.5,290.2 L17,201.8 L17,211.7 C17.3,212 17.6,212.3 18.4,212.8 L179,305.3 C184.4,308.1 195.7,308.4 203.4,303.9 L289,254.6 L289,244.4 L211.9,288.9 C211,289.4 210.1,290 209.3,290.2 L209.3,290.2 Z" id="Shape"></path>
                <path d="M224.6,60.8 L124.5,119 L297.5,219.3 L397.9,161.5 L224.6,60.8 Z" id="Shape"></path>
                <path d="M188.9,324.6 C182.1,324.6 175.6,322.9 170.5,320.1 L17,231.5 L17,238.3 C17.3,238.6 17.6,238.9 18.4,239.4 L178.6,332.1 C184,334.9 195.3,335.2 203,330.7 L288.6,281.4 L288.6,274.3 L211.5,318.8 C205,322.6 196.8,324.6 188.9,324.6 L188.9,324.6 Z" id="Shape"></path>
                <path d="M179,276.3 C179.9,276.6 180.4,276.9 181.3,277.2 L181.9,277.2 C182.8,277.5 183.3,277.5 184.2,277.8 L184.5,277.8 C185.4,277.8 186.2,278.1 187.1,278.1 L187.4,278.1 L190,278.1 L191.7,278.1 C192.6,277.8 193.1,277.8 193.7,277.8 C194.6,277.5 195.4,277.5 196.3,277.2 C196.6,276.9 196.9,276.9 197.2,276.9 C199.5,276.3 201.7,275.5 203.7,274.3 L281.1,229.5 L274,225.2 L202.5,266.6 C198.2,269.2 195.1,270.9 191.4,270.9 C188,270.9 185.4,269.2 183.2,267.8 C182.3,267.2 181.5,266.7 180.4,266.1 L49.6,191 C48.5,190.1 47.6,189.6 46.8,189.3 C44,187.6 39.1,185.3 39.1,179.7 C39.1,174 43.6,171.5 48.7,168.4 L112.2,131.8 L107.4,129 L20.6,178.9 C18.3,180.3 17.2,181.5 16.9,182 C17.2,182.3 17.8,182.9 18.3,183.1 L179,276.3 L179,276.3 Z" id="Shape"></path>
                <path d="M188.9,351.2 C182.1,351.2 175.6,349.5 170.5,346.7 L17,258.2 L17,265 C17.3,265.3 17.6,265.6 18.4,266.1 L179,358.6 C184.4,361.4 195.7,361.7 203.4,357.2 L288.8,308.1 L288.8,301 L211.7,345.5 C205,349.2 196.8,351.2 188.9,351.2 L188.9,351.2 Z" id="Shape"></path>
                <path d="M191.4,252.8 C192.3,252.5 193.1,251.9 193.7,251.7 L256.7,215.4 L129.4,141.7 L63.9,179.4 L188.7,251.2 C189.7,251.7 190.6,252.2 191.4,252.8 L191.4,252.8 Z" id="Shape"></path>
                <path d="M305.7,297.9 L406.4,239.8 L406.4,176.2 L305.7,234.4 L305.7,297.9 Z" id="Shape"></path>
                <path d="M423.7,176.5 L477.3,145.6 C479.9,143.9 481,142.5 481,142.2 L481.3,142.2 L481.3,133.1 L423.7,166.3 L423.7,176.5 L423.7,176.5 Z" id="Shape"></path>
                <path d="M423.7,196.4 L423.7,203.2 L477.3,172.3 C479.9,170.6 481,169.2 481,168.9 L481,163.2 L423.4,196.4 L423.7,196.4 L423.7,196.4 Z" id="Shape"></path>
                <path d="M309.7,41 C308.6,40.4 307.7,39.9 306.9,39.3 C306,39.6 305.2,40.2 304.6,40.4 L263.8,63.9 L390.9,137.9 L434.3,112.9 L309.7,41 L309.7,41 Z" id="Shape"></path>
                <path d="M481,113 C480.7,112.7 480.1,112.1 479.6,111.9 L319,19.4 C316.7,18 313,17.1 309.1,17.1 C304,17.1 298.6,18.2 294.9,20.5 L242.2,51.1 L247,53.9 L296.3,25.3 C300.6,22.7 303.7,21 307.4,21 C310.8,21 313.4,22.7 315.6,24.1 C316.5,24.7 317.3,25.2 318.4,25.8 L448.6,101 C449.7,101.9 450.6,102.4 451.4,102.7 C454.2,104.1 459.1,106.7 459.1,112.3 C459.1,118 454.6,120.5 449.5,123.6 L408.1,147.4 L415.2,151.7 L477.3,116 C479.6,114.7 480.7,113.6 481,113 L481,113 Z" id="Shape"></path>
                <path d="M423.4,230.1 L477.3,198.9 C479.9,197.5 481,196.1 481,195.5 L481,189.8 L423.4,223 L423.4,230.1 L423.4,230.1 Z" id="Shape"></path>
                <path d="M488.1,97.1 L327.6,4.7 C322.5,1.9 316.3,0.2 309.2,0.2 C301,0.2 292.8,2.2 286.5,5.9 L12.2,164 C4.3,168.6 0,175.1 0,182.2 C0,183.1 0,184.2 0.3,185 C0,185.6 0,186.4 0,187 L0,269 C0,272.1 1.7,275 4.3,276.4 C5.7,278.1 7.7,279.8 10,280.9 L170.5,373.4 C175.6,376.2 182.1,377.9 188.9,377.9 C196.8,377.9 205.1,375.9 211.6,372.2 L485.6,214 C491.8,210.3 495.8,205.5 497.2,200.1 C497.5,199.2 497.8,198.1 497.8,197 L497.8,115 L497.8,114.1 C498.1,113.5 498.1,113 498.1,112.7 C498,106.5 494.3,100.8 488.1,97.1 L488.1,97.1 Z M20.7,178.8 L107.5,128.9 L112.3,131.7 L48.8,168.3 C43.7,171.4 39.2,174 39.2,179.6 C39.2,185.3 44,187.5 46.9,189.2 C47.8,189.5 48.6,190.1 49.7,190.9 L180.2,266.1 C181.3,266.7 182.2,267.2 183,267.8 C185.3,269.2 187.8,270.9 191.2,270.9 C194.9,270.9 198,269.2 202.3,266.6 L273.8,225.2 L280.9,229.5 L203.5,274.3 C201.5,275.4 199.2,276.3 197,276.9 C196.7,276.9 196.4,276.9 196.1,277.2 C195.2,277.5 194.4,277.5 193.5,277.8 C192.9,277.8 192.4,277.8 191.5,278.1 L189.8,278.1 L187.2,278.1 L186.9,278.1 C186,278.1 185.2,277.8 184.3,277.8 L184,277.8 C183.1,277.5 182.6,277.5 181.7,277.2 L181.1,277.2 C180.2,276.9 179.7,276.6 178.8,276.3 L18.4,183 C17.8,182.7 17.3,182.1 17,181.9 C17.3,181.3 18.4,180.2 20.7,178.8 L20.7,178.8 Z M129.3,141.6 L256.6,215.3 L193.6,251.6 C193,251.9 192.2,252.5 191.3,252.7 C190.4,252.1 189.6,251.6 188.5,251 L63.8,179.4 L129.3,141.6 L129.3,141.6 Z M288.7,308.1 L203.3,357.2 C195.6,361.7 184.3,361.5 178.9,358.6 L18.4,266.1 C17.5,265.5 17.3,265.2 17,265 L17,258.2 L170.4,346.7 C175.5,349.5 182,351.2 188.8,351.2 C196.7,351.2 205,349.2 211.5,345.5 L288.6,301 L288.6,308.1 L288.7,308.1 Z M288.7,281.5 L203.1,330.8 C195.4,335.3 184.1,335.1 178.7,332.2 L18.4,239.5 C17.5,238.9 17.3,238.6 17,238.4 L17,231.6 L170.4,320 C175.5,322.8 182,324.5 188.8,324.5 C196.7,324.5 205,322.5 211.5,318.8 L288.6,274.3 L288.6,281.5 L288.7,281.5 Z M289,254.5 L203.4,303.8 C195.7,308.3 184.4,308.1 179,305.2 L18.4,212.8 C17.5,212.2 17.3,211.9 17,211.7 L17,201.8 L170.4,290.3 C171.5,291.2 173,291.7 174.4,292.3 C175,292.6 175.3,292.6 175.8,292.9 C176.9,293.2 177.8,293.5 178.9,293.8 C182,294.7 185.4,294.9 188.8,294.9 C194.8,294.9 201,293.8 206.4,291.5 C206.7,291.2 207,291.2 207.5,290.9 C208,290.6 208.6,290.3 209.2,290.3 C210.1,290 210.9,289.4 211.8,288.9 L288.9,244.4 L288.9,254.5 L289,254.5 Z M124.5,119 L224.6,60.9 L397.9,161.6 L297.5,219.5 L124.5,119 L124.5,119 Z M263.7,63.9 L304.5,40.4 C305.1,40.1 305.9,39.5 306.8,39.3 C307.7,39.9 308.5,40.4 309.6,41 L434.1,113 L390.7,138 L263.7,63.9 L263.7,63.9 Z M406.4,239.8 L305.7,297.9 L305.7,234.4 L406.4,176.3 L406.4,239.8 L406.4,239.8 Z M408.1,147.6 L449.5,123.8 C454.6,120.7 459.1,118.1 459.1,112.5 C459.1,106.8 454.3,104.3 451.4,102.9 C450.5,102.6 449.7,102 448.6,101.2 L318.5,25.9 C317.4,25.3 316.5,24.8 315.7,24.2 C313.4,22.8 310.9,21.1 307.5,21.1 C303.8,21.1 300.7,22.8 296.4,25.4 L247,54 L242.2,51.2 L294.9,20.6 C298.6,18.3 304,17.2 309.1,17.2 C313.1,17.2 316.8,18.1 319,19.5 L479.5,112 C480.1,112.3 480.6,112.9 480.9,113.1 C480.6,113.7 479.5,114.8 477.2,116.2 L415.1,151.9 L408.1,147.6 L408.1,147.6 Z M481,195.5 C481,196.1 479.9,197.5 477.3,198.9 L423.4,230.1 L423.4,223 L481,189.8 L481,195.5 L481,195.5 Z M481,168.9 C481,169.2 479.9,170.6 477.3,172.3 L423.7,203.2 L423.7,196.4 L423.4,196.4 L481,163.2 L481,168.9 L481,168.9 Z M481.3,142.2 L481,142.2 C481,142.5 479.9,143.9 477.3,145.6 L423.7,176.5 L423.7,166.3 L481.3,133.1 L481.3,142.2 L481.3,142.2 Z" id="Shape" fill="#3E5D9C"></path>
            </g>
        </g>
    </g>
</svg>