<?xml version="1.0" encoding="UTF-8" standalone="no"?>
<svg width="501px" height="448px" viewBox="0 0 501 448" version="1.1" xmlns="http://www.w3.org/2000/svg" xmlns:xlink="http://www.w3.org/1999/xlink" xmlns:sketch="http://www.bohemiancoding.com/sketch/ns">
    <!-- Generator: Sketch 3.3.3 (12072) - http://www.bohemiancoding.com/sketch -->
    <title>nurse</title>
    <desc>Created with Sketch.</desc>
    <defs></defs>
    <g id="Page-1" stroke="none" stroke-width="1" fill="none" fill-rule="evenodd" sketch:type="MSPage">
        <g id="nurse" sketch:type="MSLayerGroup" fill="#3E5D9C">
            <g id="Group" sketch:type="MSShapeGroup">
                <path d="M318.8,234.7 L280.6,235.5 L280.6,195.8 C280.2,184 270.7,174.8 258.9,174.8 L241.1,174.8 C229.1,174.8 219.4,184.6 219.4,196.5 L220.2,234.7 L180.8,234.7 C169,234.9 159.4,244.6 159.4,256.4 L159.4,274.2 C159.4,286 169,295.7 181.3,295.9 L219.3,295.1 L219.3,334.4 C219.5,346.2 229.2,355.8 241,355.8 L258.8,355.8 C270.6,355.8 280.3,346.2 280.5,333.9 L279.7,295.9 L319.4,295.9 C331.2,295.5 340.5,286 340.5,274.2 L340.5,256.5 C340.6,244.5 330.8,234.7 318.8,234.7 L318.8,234.7 Z M279.8,273.3 C267.8,273.3 258.1,283.1 258.1,295.1 L258.1,333.3 L242,333.9 L242,295.1 C242,283.1 232.3,273.4 220.3,273.3 L182.1,274.1 L181.5,257.2 L220.3,257.2 C232.3,257.2 242,247.5 242,235.5 L241.2,197.3 L258.1,196.8 L258.1,235.5 C258.1,247.4 267.8,257.2 279.8,257.2 L318,256.4 L318.5,273.3 L279.8,273.3 L279.8,273.3 Z" id="Shape"></path>
                <path d="M454.6,83.5 L442.8,83.5 L435.4,83.5 L411.7,83.5 C411.7,83.5 411.7,83.5 411.6,83.5 C411.6,83.5 411.6,83.5 411.5,83.5 L368.9,83.5 L368.9,69.8 C368.9,31.8 338,0.8 299.9,0.8 L200.2,0.8 C162.5,0.8 132.2,30.3 131.2,68.3 L131.4,83.5 L119.8,83.5 L56.6,83.5 C56.2,83.5 55.9,83.7 55.5,83.7 C55.1,83.7 54.8,83.5 54.4,83.5 L45.4,83.5 C20.4,83.5 0,103.8 0,128.9 L0,401.7 C0,426.8 20.3,447.1 45.4,447.1 L55.5,447.1 L120.8,447.1 L379.2,447.1 L443.9,447.1 L454.7,447.1 C479.7,447.1 500.1,426.8 500.1,401.7 L500.1,128.9 C500,103.9 479.7,83.5 454.6,83.5 L454.6,83.5 Z M153.7,68.7 C154.4,43.8 175.2,23.5 200.1,23.5 L299.8,23.5 C325.4,23.5 346.2,44.3 346.2,69.9 L346.2,83.6 L331.7,83.6 L331.7,70.9 L331.7,68.1 C330.8,51.7 317.3,38.4 300.9,37.8 C300.1,37.7 299.5,37.7 298.7,37.8 L201,37.8 L198.8,37.8 C182.4,38.3 168.9,51.6 168,68 L168,70.8 L168,83.4 L153.5,83.4 L153.5,68.7 L153.7,68.7 Z M190.7,69.4 C191,64.5 195,60.6 199.9,60.5 L200.2,60.5 L200.7,60.5 L299.3,60.5 L300.1,60.5 C305,60.6 309,64.5 309.3,71 L309.3,83.6 L190.7,83.6 L190.7,69.4 L190.7,69.4 Z M79.7,424.5 L55.5,424.5 L45.4,424.5 C32.8,424.5 22.6,414.2 22.6,401.6 L22.6,128.9 C22.6,116.3 32.8,106.1 45.4,106.1 L56.6,106.1 L79.7,106.1 L79.7,424.5 L79.7,424.5 Z M400.3,424.5 L379.2,424.5 L120.8,424.5 L102.3,424.5 L102.3,106.1 L134.4,106.1 L135.5,106.1 L136.7,106.1 L312.4,106.1 L313.5,106.1 L314.7,106.1 L363.8,106.1 L363.9,106.1 C366.6,106.2 374.6,106.2 400.4,106.1 L400.4,424.5 L400.3,424.5 Z M477.4,401.7 C477.4,414.3 467.2,424.6 454.6,424.6 L443.8,424.6 L422.7,424.6 L422.7,106.1 L435.2,106.1 L442.6,106.1 C443,106.1 443.3,105.9 443.7,105.9 C444.1,105.9 444.4,106.1 444.8,106.1 L454.5,106.1 C467.1,106.1 477.3,116.3 477.3,128.9 L477.3,401.7 L477.4,401.7 Z" id="Shape"></path>
            </g>
        </g>
    </g>
</svg>