<?xml version="1.0" encoding="UTF-8" standalone="no"?>
<svg width="502px" height="500px" viewBox="0 0 502 500" version="1.1" xmlns="http://www.w3.org/2000/svg" xmlns:xlink="http://www.w3.org/1999/xlink" xmlns:sketch="http://www.bohemiancoding.com/sketch/ns">
    <!-- Generator: Sketch 3.3.3 (12072) - http://www.bohemiancoding.com/sketch -->
    <title>pilot</title>
    <desc>Created with Sketch.</desc>
    <defs></defs>
    <g id="Page-1" stroke="none" stroke-width="1" fill="none" fill-rule="evenodd" sketch:type="MSPage">
        <g id="pilot" sketch:type="MSLayerGroup">
            <g id="Group" sketch:type="MSShapeGroup">
                <path d="M458,31.4 C450.1,31.4 434.5,33.8 418.6,49.7 L315.3,152.8 L305.3,162.8 L291.2,161.9 C262.9,160.1 213.2,156.9 169.1,154 C127.6,151.3 84.6,148.5 81.2,148.3 L80.1,148.3 C79.3,148.3 78,149 76.5,150.2 C70.9,154.8 61.3,163.5 53.4,170.8 C84.4,182.4 150.7,207.2 185.3,219.9 L231.3,236.8 L196.6,271.5 L135,335.1 L126.1,344 L113.5,344.3 C110.6,344.4 107,344.4 102.9,344.4 C92.3,344.4 78.3,344.2 66.1,344 C56.7,343.9 48.4,343.8 43.3,343.8 L42.7,343.8 C58.8,354.3 84,370.2 107,384 L113.5,388 L117.5,394.5 C123,403.4 140.8,431.9 153.7,452.4 C154.6,453.8 155.4,455 156.2,456.3 L156.2,431.7 C156.2,415.8 156.1,397.8 156.3,387.7 L156.6,375.1 L165.5,366.2 L229.5,304.6 L264.3,269.8 L281.1,316.1 C294.2,352 317.9,416.3 329.2,446.7 C336.5,438.8 345.1,429.3 349.7,423.6 C351.8,421.1 351.7,420.6 351.7,418.4 C351.5,415.2 349.2,377.2 346.8,337 C344.1,291.9 340.9,239.2 339.2,209.8 L338.4,195.8 L348.4,185.8 L451.6,82.7 C473.8,60.5 470.8,39 468.6,33 C466.7,32.3 463.1,31.4 458,31.4 L458,31.4 Z" id="Shape"></path>
                <path d="M491,10.6 C485,4.6 472.8,0 458,0 C439.5,0 416.7,7.1 396.4,27.4 L293.2,130.7 C235,127 86.1,117.1 82.4,117 C81.7,117 80.9,116.9 80,116.9 C75,116.9 66.3,117.9 56.4,126 C44.8,135.6 20.6,158.3 20.6,158.3 C14.8,164.1 11.8,171.4 12.5,178.2 C12.9,182.3 15.2,189.8 25.3,193.8 C31.4,196.2 129.2,232.8 174.3,249.4 L112.7,313 C110,313.1 106.6,313.1 102.8,313.1 C84,313.1 54.9,312.5 43.2,312.5 L39.5,312.5 C35.9,312.6 28.6,310.9 9.2,327.1 L7.8,328.4 C2,334.2 0.6,340 0.5,343.9 C0.4,347.9 1.4,353.5 7.1,358.1 C10.5,360.9 54.6,389.1 90.7,410.9 C99.4,425 139.2,488.3 141.3,491.8 C144.3,496.9 149.3,499.9 155.2,500 L155.7,500 C161.5,500 167.4,497.1 173.2,491.5 C189.6,472.3 187.4,464.3 187.4,461 C187.7,450.5 187.2,406.1 187.6,388.5 L251.6,326.9 C268,371.8 303.7,468.5 306.1,474.7 C310.1,484.8 317.6,487 321.7,487.4 C322.4,487.5 323.1,487.5 323.7,487.5 C329.9,487.5 336.3,484.6 341.6,479.3 C341.6,479.3 364.3,455.2 373.9,443.5 C383.5,431.8 383.2,421.8 383,417.1 C382.9,413.8 373.8,265.7 370.5,207.9 L473.7,104.7 C510.4,68.3 504.6,24.2 491,10.6 L491,10.6 Z M451.6,82.7 L348.4,185.9 L338.4,195.9 L339.2,209.9 C340.9,239.3 344.1,292 346.8,337.1 C349.2,377.3 351.5,415.2 351.7,418.5 C351.8,420.7 351.8,421.2 349.7,423.7 C345.1,429.3 336.4,438.8 329.2,446.8 C317.9,416.4 294.2,352.2 281.1,316.2 L264.3,270 L229.5,304.8 L165.5,366.4 L156.6,375.3 L156.3,387.9 C156.1,397.9 156.1,416 156.2,431.9 C156.2,441.8 156.3,450.7 156.2,456.5 C155.4,455.2 154.6,453.9 153.7,452.6 C140.8,432 122.9,403.5 117.5,394.7 L113.5,388.2 L107,384.2 C84,370.3 58.8,354.5 42.6,344.1 L43.2,344.1 C48.3,344.1 56.6,344.2 66,344.3 C78.3,344.5 92.2,344.7 102.8,344.7 C106.9,344.7 110.5,344.7 113.4,344.6 L126,344.3 L134.9,335.4 L196.5,271.8 L231.2,237.1 L185.2,220.2 C150.6,207.5 84.3,182.7 53.3,171.1 C61.2,163.8 70.8,155.1 76.4,150.5 C78,149.2 79.2,148.6 80,148.6 L81.1,148.6 C84.6,148.8 127.5,151.6 169,154.3 C213.1,157.2 262.8,160.4 291.1,162.2 L305.2,163.1 L315.2,153.1 L418.6,49.6 C434.5,33.7 450.1,31.3 458,31.3 C463.1,31.3 466.7,32.2 468.6,33 C470.8,39 473.8,60.5 451.6,82.7 L451.6,82.7 Z" id="Shape" fill="#3E5D9C"></path>
            </g>
        </g>
    </g>
</svg>