<?xml version="1.0" encoding="UTF-8" standalone="no"?>
<svg width="500px" height="320px" viewBox="0 0 500 320" version="1.1" xmlns="http://www.w3.org/2000/svg" xmlns:xlink="http://www.w3.org/1999/xlink" xmlns:sketch="http://www.bohemiancoding.com/sketch/ns">
    <!-- Generator: Sketch 3.3.3 (12072) - http://www.bohemiancoding.com/sketch -->
    <title>student</title>
    <desc>Created with Sketch.</desc>
    <defs></defs>
    <g id="Page-1" stroke="none" stroke-width="1" fill="none" fill-rule="evenodd" sketch:type="MSPage">
        <g id="student" sketch:type="MSLayerGroup" transform="translate(250.000000, 160.000000) scale(-1, 1) translate(-250.000000, -160.000000) " stroke-width="4" stroke="#FFFFFF" fill="#3E5D9C">
            <g id="_x38_97-graduation-cap-toolbar_x40_2x.png" sketch:type="MSShapeGroup">
                <path d="M500,80.4 C500,75.5 496.9,71.4 492.6,69.8 L492.6,69.7 L254,1.6 L254,1.7 C252.8,1.2 251.5,0.9 250.1,0.9 C248.7,0.9 247.4,1.2 246.2,1.7 L246.2,1.6 L7.4,69.8 L7.4,69.9 C3.1,71.5 0,75.6 0,80.5 C0,85.4 3.1,89.5 7.4,91.1 L7.4,91.2 L48.3,102.9 C44,113.7 40.5,125.7 37.9,138.3 C22.7,141.8 11.3,155.3 11.3,171.5 C11.3,186.4 20.9,198.9 34.2,203.6 C31.8,235.1 24.1,273.8 2.5,300.8 C-1.4,305.7 -0.6,312.9 4.3,316.8 C6.4,318.5 8.9,319.3 11.4,319.3 C14.7,319.3 18,317.8 20.3,315 C38.1,292.7 47.7,264.5 52.8,237.5 L68.4,310.3 C69.5,315.6 74.3,319.3 79.5,319.3 C80.3,319.3 81.1,319.2 81.9,319.1 C88,317.8 91.9,311.7 90.6,305.6 L67.5,197.2 C74.8,190.9 79.6,181.8 79.6,171.4 C79.6,158.2 72.1,147 61.1,141.3 C63.5,130.4 66.5,119.5 70.5,109.2 L123.6,124.4 L113.7,272.5 L114,272.5 C114,272.9 113.7,273.2 113.7,273.6 C113.7,279.9 118.8,285 125.1,285 C126.9,285 128.6,284.5 130.1,283.7 L130.2,283.8 L131.3,282.9 C132.1,282.4 132.9,281.8 133.5,281.1 L181,243.1 L241.8,303.9 C242.1,304.2 242.3,304.5 242.6,304.7 L243.3,305.4 L243.4,305.2 C245.3,306.6 247.5,307.6 250.1,307.6 C252.7,307.6 254.9,306.6 256.8,305.2 L256.9,305.4 L257.6,304.7 C257.9,304.4 258.2,304.2 258.4,303.9 L319.2,243.1 L366.7,281.1 C367.3,281.8 368.1,282.3 368.9,282.9 L370,283.8 L370.1,283.7 C371.6,284.5 373.3,285 375.1,285 C381.4,285 386.5,279.9 386.5,273.6 C386.5,273.2 386.2,272.9 386.2,272.4 L386.5,272.4 L376.6,124.3 L492.8,91.1 L492.8,91 C496.9,89.4 500,85.3 500,80.4 L500,80.4 Z M45.5,182.7 C39.2,182.7 34.1,177.6 34.1,171.3 C34.1,165 39.2,159.9 45.5,159.9 C51.8,159.9 56.9,165 56.9,171.3 C56.8,177.6 51.7,182.7 45.5,182.7 L45.5,182.7 Z M326.6,220.7 C326,220 325.2,219.5 324.4,219 L323.3,218.1 L323.2,218.2 C321.7,217.4 320,216.9 318.2,216.9 C315.6,216.9 313.4,217.9 311.5,219.3 L311.4,219.1 L310.7,219.8 C310.4,220.1 310.1,220.3 309.9,220.6 L250,280.4 L190.2,220.6 C189.9,220.3 189.7,220 189.4,219.8 L188.7,219.1 L188.6,219.3 C186.7,217.9 184.5,216.9 181.9,216.9 C180.1,216.9 178.4,217.4 176.9,218.2 L176.8,218.1 L175.7,219 C174.9,219.5 174.1,220 173.5,220.8 L138,249 L145.9,130.7 L246,159.3 L246,159.2 C247.2,159.7 248.5,160 249.9,160 C251.3,160 252.6,159.7 253.8,159.2 L253.8,159.3 L353.9,130.7 L362,249 L326.6,220.7 L326.6,220.7 Z M370.3,102.5 L352.3,104.4 L352.5,107.6 L250,136.8 L147.5,107.5 L147.7,104.3 L129.7,102.4 L52.6,80.4 L250,24.1 L447.4,80.5 L370.3,102.5 L370.3,102.5 Z" id="Shape"></path>
            </g>
        </g>
    </g>
</svg>