<?xml version="1.0" encoding="UTF-8" standalone="no"?>
<svg width="500px" height="500px" viewBox="0 0 500 500" version="1.1" xmlns="http://www.w3.org/2000/svg" xmlns:xlink="http://www.w3.org/1999/xlink" xmlns:sketch="http://www.bohemiancoding.com/sketch/ns">
    <!-- Generator: Sketch 3.3.3 (12072) - http://www.bohemiancoding.com/sketch -->
    <title>school</title>
    <desc>Created with Sketch.</desc>
    <defs></defs>
    <g id="Page-1" stroke="none" stroke-width="1" fill="none" fill-rule="evenodd" sketch:type="MSPage">
        <g id="school" sketch:type="MSLayerGroup" fill="#3E5D9C">
            <g id="Group" sketch:type="MSShapeGroup">
                <path d="M205.1,155.1 C177.7,155.1 155.4,177.4 155.4,204.8 C155.4,232.2 177.7,254.5 205.1,254.5 C232.5,254.5 254.8,232.2 254.8,204.8 C254.8,177.4 232.5,155.1 205.1,155.1 L205.1,155.1 Z M205.1,223.5 C194.8,223.5 186.4,215.1 186.4,204.8 C186.4,194.5 194.8,186.1 205.1,186.1 C215.4,186.1 223.8,194.5 223.8,204.8 C223.7,215.1 215.4,223.5 205.1,223.5 L205.1,223.5 Z" id="Shape"></path>
                <path d="M499.8,206.1 C499.8,180.4 478.9,159.6 453.3,159.6 C432.7,159.6 415.4,173.1 409.3,191.7 C402.4,84.9 313.6,0 205.1,0 C92.1,0 0.2,91.9 0.2,204.8 C0.2,271.1 32,329.9 80.9,367.4 L80.9,454.3 C80.9,479.5 101.8,500 127.4,500 L282.5,500 C308.2,500 329,479.5 329,454.3 L329,441.1 C403.1,402.2 454.1,331.6 468,250 C486.5,243.7 499.8,226.5 499.8,206.1 L499.8,206.1 Z M453.3,190.6 C461.8,190.6 468.8,197.6 468.8,206.1 C468.8,214.7 461.8,221.6 453.3,221.6 C444.8,221.6 437.8,214.6 437.8,206.1 C437.7,197.5 444.7,190.6 453.3,190.6 L453.3,190.6 Z M298.1,454.3 C298.1,462.5 291.3,469 282.6,469 L127.5,469 C118.8,469 112,462.6 112,454.3 L112,387.1 C140,401.4 171.6,409.7 205.1,409.7 C238.6,409.7 270.2,401.4 298.1,387.1 L298.1,454.3 L298.1,454.3 Z M205.1,378.7 C109.2,378.7 31.3,300.7 31.3,204.9 C31.2,109 109.2,31 205.1,31 C300.9,31 378.9,109 378.9,204.8 C378.9,300.7 300.9,378.7 205.1,378.7 L205.1,378.7 Z M329.1,405.4 L329.1,367.5 C374.3,332.9 404.5,279.9 408.9,219.8 C413.1,233.3 423.2,244.2 436.3,249.4 C424,314.1 385.4,370.6 329.1,405.4 L329.1,405.4 Z" id="Shape"></path>
            </g>
        </g>
    </g>
</svg>